<svg width="600" height="600" viewBox="0 0 600 600" fill="none" xmlns="http://www.w3.org/2000/svg">
  <rect width="600" height="600" fill="#F1F5F9"/>
  <path d="M300 350C328.5 350 351.5 327 351.5 298.5C351.5 270 328.5 247 300 247C271.5 247 248.5 270 248.5 298.5C248.5 327 271.5 350 300 350Z" fill="#94A3B8"/>
  <path d="M385 420.5H215C215 394.5 239 373 268.5 373H331.5C361 373 385 394.5 385 420.5Z" fill="#94A3B8"/>
  <path d="M300 180C217 180 150 247 150 330C150 413 217 480 300 480C383 480 450 413 450 330C450 247 383 180 300 180ZM300 450C233.5 450 180 396.5 180 330C180 263.5 233.5 210 300 210C366.5 210 420 263.5 420 330C420 396.5 366.5 450 300 450Z" fill="#CBD5E1"/>
  <text x="300" y="525" font-family="Arial" font-size="24" text-anchor="middle" fill="#64748B">placeholder.svg</text>
</svg> 